<?xml version="1.0" standalone="no"?>
<!DOCTYPE svg PUBLIC "-//W3C//DTD SVG 20010904//EN"
 "http://www.w3.org/TR/2001/REC-SVG-20010904/DTD/svg10.dtd">
<svg version="1.0" xmlns="http://www.w3.org/2000/svg"
 width="1280.000000pt" height="1280.000000pt" viewBox="0 0 1280.000000 1280.000000"
 preserveAspectRatio="xMidYMid meet">

<g transform="translate(0.000000,1280.000000) scale(0.100000,-0.100000)"
fill="#000000" stroke="none">
<path d="M9088 6751 c-12 -22 -13 -28 -3 -25 21 8 49 54 33 54 -7 0 -21 -13
-30 -29z"/>
<path d="M9050 6695 c-10 -12 -10 -15 3 -15 8 0 17 7 21 15 3 8 2 15 -3 15 -5
0 -14 -7 -21 -15z"/>
<path d="M5570 6521 c0 -6 4 -13 10 -16 6 -3 7 1 4 9 -7 18 -14 21 -14 7z"/>
<path d="M4963 6389 c1 -35 -2 -75 -7 -88 -6 -16 -5 -21 3 -17 13 8 4 -18 -17
-51 -9 -15 -12 -33 -7 -50 6 -27 6 -27 -14 -9 -24 21 -27 30 -8 21 6 -4 1 3
-13 15 -14 12 -19 18 -11 14 9 -4 12 -2 9 7 -3 8 -14 15 -26 17 -14 2 -22 11
-22 23 0 10 -4 19 -10 19 -5 0 -10 -9 -10 -20 0 -11 -7 -20 -15 -20 -8 0 -15
6 -15 14 0 16 -31 23 -103 26 -27 0 -58 5 -70 9 -12 4 -56 5 -97 1 -44 -5 -85
-3 -100 2 -14 6 -56 7 -95 4 -38 -3 -96 -2 -127 2 -31 5 -63 6 -70 2 -7 -4
-24 4 -37 17 -24 23 -24 23 -3 23 12 0 22 5 22 10 0 12 -103 12 -140 0 -14 -4
-20 -9 -15 -10 6 -1 -3 -5 -20 -9 -34 -8 -55 -4 -55 11 0 7 4 7 13 0 8 -7 16
-6 24 3 10 11 5 15 -30 20 -24 4 -56 5 -73 3 -25 -3 -29 -7 -29 -32 0 -25 -5
-31 -35 -39 -33 -8 -59 -7 -215 12 l-60 8 58 1 c31 1 57 6 57 12 0 5 -28 9
-64 9 -52 -1 -73 4 -121 29 -62 33 -75 33 -75 0 0 -33 74 -228 86 -228 6 0 14
-18 18 -41 15 -94 153 -318 289 -469 253 -281 543 -460 967 -596 110 -36 330
-88 415 -98 28 -4 68 -9 90 -11 33 -4 263 -24 288 -25 19 0 0 45 -77 179 -282
491 -405 842 -435 1234 -10 128 -21 168 -18 66z m-1494 -247 c0 -14 -2 -14 -6
-2 -4 8 -17 23 -30 33 -13 10 -20 23 -17 28 8 14 54 -38 53 -59z"/>
<path d="M5582 6367 c-5 -104 49 -423 98 -582 84 -271 167 -478 297 -744 l56
-113 86 7 c381 31 884 173 1311 372 383 177 680 369 989 637 85 75 277 267
350 351 127 148 122 140 78 119 -20 -10 -39 -26 -43 -36 -6 -19 -24 -25 -24
-7 0 5 -5 7 -10 4 -6 -4 -8 -11 -5 -16 4 -5 -1 -9 -9 -9 -9 0 -16 -4 -16 -10
0 -5 -9 -10 -21 -10 -13 0 -18 -4 -13 -12 5 -7 3 -8 -5 -3 -18 10 -62 -15 -60
-34 4 -42 -1 -51 -28 -52 -16 0 -23 -3 -16 -5 9 -4 9 -13 2 -30 -6 -17 -5 -32
2 -46 8 -16 8 -19 -1 -13 -7 4 -15 3 -19 -3 -4 -7 -12 -8 -21 -1 -13 8 -13 10
0 18 8 5 18 7 22 5 4 -3 8 -2 8 1 0 3 -16 13 -35 21 -19 8 -35 18 -35 23 0 6
-9 13 -20 16 -24 8 -27 25 -4 25 10 0 14 6 11 15 -5 10 4 16 31 20 20 4 42 8
47 9 25 7 -353 17 -803 21 -418 4 -497 7 -522 20 -17 9 -30 22 -30 30 0 8 -7
15 -15 15 -9 0 -15 -9 -15 -25 l0 -25 -101 0 c-55 0 -98 -4 -95 -9 3 -5 -22
-11 -55 -13 -33 -2 -64 -9 -67 -15 -4 -5 -24 -13 -44 -16 -38 -6 -38 -5 -38
29 0 38 0 38 -35 22 -29 -13 -32 -25 -7 -31 10 -3 6 -5 -10 -6 -21 -1 -28 4
-28 17 0 23 -38 42 -65 32 -11 -4 -24 -5 -28 -3 -18 10 -220 14 -226 5 -9 -15
-122 -18 -148 -4 -26 14 -125 16 -172 2 -49 -14 -81 -3 -81 27 0 23 -2 24 -62
21 -38 -2 -63 -8 -66 -15 -2 -8 6 -13 22 -13 14 0 26 -4 26 -9 0 -11 -142 -1
-158 12 -7 5 -15 7 -19 3 -3 -3 -1 -6 5 -6 7 0 12 -4 12 -10 0 -5 -12 -10 -26
-10 -18 0 -25 4 -21 14 3 8 -2 16 -11 18 -22 6 -44 -1 -37 -13 4 -5 -1 -6 -10
-2 -13 4 -16 1 -13 -17 1 -13 -2 -25 -9 -27 -7 -3 -14 18 -20 58 -11 82 -27
86 -31 6z m396 -34 c-10 -2 -26 -2 -35 0 -10 3 -2 5 17 5 19 0 27 -2 18 -5z
m210 -24 c-18 -12 -25 -11 -31 4 -4 10 2 13 20 9 18 -3 21 -7 11 -13z m915 -6
c-13 -2 -33 -2 -45 0 -13 2 -3 4 22 4 25 0 35 -2 23 -4z m85 0 c-10 -2 -26 -2
-35 0 -10 3 -2 5 17 5 19 0 27 -2 18 -5z m-521 -9 c-3 -3 -12 -4 -19 -1 -8 3
-5 6 6 6 11 1 17 -2 13 -5z m1983 -84 c-8 -5 -19 -10 -25 -10 -5 0 -3 5 5 10
8 5 20 10 25 10 6 0 3 -5 -5 -10z m-146 -155 c-4 -8 -11 -15 -16 -15 -6 0 -5
6 2 15 7 8 14 15 16 15 2 0 1 -7 -2 -15z"/>
<path d="M5680 6410 c0 -5 5 -10 11 -10 5 0 7 5 4 10 -3 6 -8 10 -11 10 -2 0
-4 -4 -4 -10z"/>
<path d="M3848 6403 c7 -3 16 -2 19 1 4 3 -2 6 -13 5 -11 0 -14 -3 -6 -6z"/>
<path d="M7266 6371 c-4 -7 -5 -15 -2 -18 9 -9 19 4 14 18 -4 11 -6 11 -12 0z"/>
<path d="M4683 6359 c12 -7 27 -7 45 0 25 9 24 9 -18 10 -36 0 -41 -2 -27 -10z"/>
<path d="M8178 6313 c12 -2 32 -2 45 0 12 2 2 4 -23 4 -25 0 -35 -2 -22 -4z"/>
<path d="M8353 6313 c9 -2 25 -2 35 0 9 3 1 5 -18 5 -19 0 -27 -2 -17 -5z"/>
<path d="M6736 3784 c-3 -42 -6 -364 -6 -714 0 -501 3 -639 13 -643 6 -2 58
-2 115 1 l102 5 0 303 c0 250 3 311 16 350 55 162 323 194 391 46 15 -32 18
-82 21 -369 l3 -333 113 0 114 0 -2 363 c-2 310 -5 369 -19 411 -24 68 -52
111 -100 150 -80 64 -101 71 -227 71 -132 0 -166 -12 -250 -91 -26 -24 -50
-44 -53 -44 -4 0 -8 127 -9 283 l-3 282 -106 3 -106 3 -7 -77z"/>
<path d="M3068 3792 l-58 -3 0 -679 0 -680 115 0 115 0 2 283 3 282 278 3 277
2 0 93 c0 50 -4 98 -8 104 -6 9 -77 13 -277 15 l-270 3 0 185 0 184 342 1 343
0 0 101 0 102 -27 7 c-26 6 -703 4 -835 -3z"/>
<path d="M7698 3793 c-16 -4 -18 -18 -18 -109 l0 -104 225 0 225 0 0 -575 0
-576 118 3 117 3 2 569 c1 313 5 571 8 574 3 3 101 6 218 6 l212 1 3 106 3
106 -548 0 c-301 0 -556 -2 -565 -4z"/>
<path d="M4505 3417 c-22 -8 -51 -19 -65 -26 -35 -19 -99 -81 -116 -113 -24
-46 -34 -32 -34 46 0 50 -4 75 -12 78 -7 2 -54 5 -104 7 l-91 3 -5 -27 c-3
-15 -6 -236 -7 -491 l-2 -464 115 0 115 0 3 298 c3 294 3 297 28 347 19 38 38
58 80 83 53 31 59 33 150 31 l95 -2 3 108 c1 60 -1 112 -5 116 -16 15 -108 19
-148 6z"/>
<path d="M5105 3417 c-155 -52 -256 -153 -313 -311 -21 -60 -25 -89 -25 -186
0 -98 4 -126 26 -189 14 -41 30 -77 34 -80 4 -3 15 -19 23 -35 64 -125 238
-215 418 -216 105 0 290 53 345 98 18 16 23 52 7 52 -5 0 -10 8 -10 17 0 10
-7 37 -16 60 -17 45 -36 53 -63 29 -26 -22 -139 -57 -208 -63 -163 -15 -300
79 -330 228 l-5 29 348 2 349 3 3 75 c4 94 -12 178 -50 255 -35 71 -76 127
-88 120 -4 -3 -15 6 -24 20 -9 14 -23 25 -32 25 -8 0 -24 9 -36 20 -42 39 -85
51 -200 55 -79 4 -125 1 -153 -8z m251 -192 c52 -31 93 -87 109 -153 l12 -47
-81 -8 c-90 -9 -406 1 -406 13 0 21 33 98 55 127 34 44 88 84 128 94 55 14
134 3 183 -26z"/>
<path d="M6080 3414 c-120 -32 -197 -109 -219 -221 -15 -78 -5 -142 33 -205
35 -60 90 -95 228 -148 138 -53 192 -82 206 -113 20 -41 6 -83 -36 -115 -31
-24 -44 -27 -106 -27 -97 1 -207 37 -263 88 -13 11 -25 18 -28 16 -20 -20 -73
-142 -68 -156 5 -12 3 -14 -8 -8 -12 8 -12 6 0 -8 23 -29 157 -87 237 -103
113 -24 233 -16 310 20 70 31 131 90 165 156 49 94 21 247 -55 305 -45 34
-136 82 -204 106 -31 11 -71 27 -89 35 -17 8 -36 14 -41 14 -6 0 -24 12 -41
26 -25 20 -31 34 -31 63 0 56 18 101 37 94 10 -4 14 -2 9 5 -4 7 21 10 87 8
84 -1 100 -5 170 -38 88 -42 79 -48 121 65 l25 67 -22 15 c-13 8 -32 16 -42
18 -11 2 -30 9 -43 15 -12 7 -28 10 -34 6 -6 -4 -8 -3 -5 3 19 30 -197 43
-293 17z"/>
<path d="M9144 3415 c-140 -42 -247 -124 -312 -238 -60 -104 -76 -170 -69
-282 14 -229 153 -410 361 -470 46 -13 86 -16 180 -13 116 4 124 6 201 42 144
70 267 223 282 354 14 112 7 233 -17 295 -41 109 -145 217 -268 279 -81 41
-84 41 -200 44 -72 1 -133 -3 -158 -11z m270 -219 c92 -45 154 -145 164 -263
13 -164 -102 -304 -270 -328 -109 -16 -237 58 -289 168 -25 53 -29 74 -29 142
1 135 59 232 174 291 44 22 60 25 123 21 51 -3 87 -12 127 -31z"/>
</g>
</svg>
